# xmcd CD database file
#
# Track frame offsets:
#	150
#	13444
#	22801
#	39635
#	52261
#	69853
#	84296
#	102878
#	115617
#	132762
#	147983
#	164459
#	175802
#	193380
#	225127
#	235304
#	242194
#	256966
#	270652
#	279192
#	293646
#	307496
#
# Disc length: 4261 seconds
#
# Revision: 0
# Processed by: cddbd v1.5.2PL0 Copyright (c) Steve Scherf et al.
# Submitted via: CDex 1.70beta2
#
DISCID=3610a316
DTITLE=Ella Fitzgerald - Songbooks [CD3 - Rodgers - Hart)
DYEAR=1956
DGENRE=Jazz
TTITLE0=This can't be love
TTITLE1=Thou swell
TTITLE2=My romance
TTITLE3=Where or when
TTITLE4=Little girl blue
TTITLE5=give it back to the indians
TTITLE6=Ten cents a dance
TTITLE7=There's a small hotel
TTITLE8=I didn't know what time it was
TTITLE9=Ev'rything i've got
TTITLE10=I could write a book
TTITLE11=The blue room
TTITLE12=My fynny valentine
TTITLE13=Bewitched, bothered and bewildered
TTITLE14=Mountain greenery
TTITLE15=Wait till you see him
TTITLE16=Lover
TTITLE17=Isn't it romantic?
TTITLE18=Here in my arms
TTITLE19=Blue moon
TTITLE20=My heart stood still
TTITLE21=I've got five dollars
EXTD=YEAR: 1956
EXTT0=
EXTT1=
EXTT2=
EXTT3=
EXTT4=
EXTT5=
EXTT6=
EXTT7=
EXTT8=
EXTT9=
EXTT10=
EXTT11=
EXTT12=
EXTT13=
EXTT14=
EXTT15=
EXTT16=
EXTT17=
EXTT18=
EXTT19=
EXTT20=
EXTT21=
PLAYORDER=
